<svg width="71" height="79" viewBox="0 0 71 79" fill="none" xmlns="http://www.w3.org/2000/svg">
<path fill-rule="evenodd" clip-rule="evenodd" d="M42.5345 1.44803C41.4992 2.02878 40.819 3.3954 40.6635 5.20734C40.5966 5.98701 40.3221 6.39088 37.7251 9.52859C30.3268 18.468 23.026 24.4899 12.0852 30.6771C8.44935 32.7334 5.21765 34.6728 4.54814 35.2006C1.45538 37.6383 -0.040965 41.2478 0.265811 45.5312C0.455905 48.1854 1.74184 51.3254 3.35712 53.0791C5.07141 54.9402 8.44497 56.715 11.3961 57.3084C13.9566 57.8233 14.9099 57.799 17.2303 57.1594C18.7023 56.7538 19.1578 56.6738 19.1904 56.8151C19.2138 56.9164 19.9814 58.3304 20.8962 59.9572C21.8112 61.5841 23.4776 64.5617 24.5993 66.5742C29.7413 75.7996 30.2484 76.6586 30.8603 77.1798C32.1028 78.2385 33.5539 78.7586 35.2875 78.7665C37.3594 78.776 39.7774 77.3657 40.6802 75.6214C41.3787 74.2717 41.5336 73.392 41.311 72.041C41.1405 71.0056 40.9709 70.615 39.6828 68.2871C38.8919 66.8583 37.6322 64.5682 36.8833 63.1982C36.1342 61.8283 34.9758 59.7113 34.309 58.4938C30.8976 52.2652 30.0448 50.6666 30.0942 50.593C30.2072 50.4251 32.7489 49.1276 34.7728 48.2049C38.8625 46.3402 43.2441 45.1037 48.7095 44.2717C52.8845 43.6362 55.5152 43.4418 60.7607 43.3809C62.8665 43.3565 63.3403 43.4043 64.0843 43.7157C65.7876 44.4287 67.2406 44.4203 68.4976 43.6903C69.4669 43.1276 70.1268 41.522 70.2342 39.4643C70.3146 37.9243 69.0014 32.206 67.9955 29.7162C66.6435 26.3696 64.9052 22.8165 63.3285 20.1767C62.8785 19.4235 62.3883 18.5899 62.2389 18.3244C61.4962 17.0039 58.7433 12.9581 57.6107 11.5223C56.3314 9.90047 56.0211 9.52199 55.1397 8.50805C54.0829 7.29223 52.1937 5.33678 51.5692 4.81225C48.8638 2.53989 47.0014 1.41296 45.4507 1.10996C44.238 0.873034 43.383 0.972208 42.5345 1.44803ZM45.0977 3.05404C45.8261 3.30408 47.505 4.27634 48.5817 5.07173C52.5936 8.03524 58.4418 15.5228 62.325 22.6673C64.6573 26.9582 66.2849 30.8489 67.2623 34.4701C68.2415 38.0974 68.3583 40.4661 67.6163 41.6475C67.2913 42.1647 66.4274 42.4157 65.76 42.1863C63.6388 41.4579 60.1687 38.6876 57.5885 35.663L56.6888 34.6083L57.1904 33.4175C57.8304 31.8978 58.1446 30.5382 58.2388 28.8811C58.346 26.9912 57.6379 23.925 56.7069 22.2479C55.0824 19.3214 52.3959 17.0838 49.2687 16.0524C48.1127 15.6713 46.125 15.2398 45.5134 15.2372C45.1901 15.2358 45.0295 15.1211 44.8863 14.7892C44.3411 13.5251 43.7195 11.5306 43.2862 9.65613C42.6074 6.71842 42.5957 4.62139 43.2526 3.57566C43.5663 3.07598 44.4413 2.8287 45.0977 3.05404ZM42.8862 15.5386C46.8105 25.2621 53.6748 35.5787 59.6346 40.7102C59.9739 41.0022 60.232 41.2696 60.2082 41.3044C60.1845 41.3391 59.1649 41.3985 57.9422 41.4363C56.1371 41.492 55.6519 41.4527 55.3597 41.2271C54.7047 40.7212 51.7042 37.3765 50.4583 35.7633C46.0906 30.1077 41.9909 22.8324 39.929 17.077C39.5461 16.0084 39.0359 14.423 38.7952 13.5542L38.3576 11.9743L39.6191 10.4745L40.8804 8.97493L41.5669 11.4727C41.9445 12.8464 42.5383 14.6761 42.8862 15.5386ZM46.9723 17.5015C50.1521 18.2048 52.9056 20.1081 54.5558 22.7436C55.1954 23.7653 55.3355 24.1352 55.7491 25.8965C56.1462 27.5872 56.2004 28.0745 56.1042 29.0868C55.9895 30.2927 55.4854 32.4065 55.263 32.614C55.1969 32.6759 55.0123 32.5659 54.8531 32.3696C54.3012 31.6891 51.5538 27.7157 51.0693 26.897C48.7704 23.0126 47.956 21.5505 47.1236 19.814C46.1488 17.78 45.9951 17.3931 46.1484 17.3578C46.1954 17.347 46.566 17.4116 46.9723 17.5015ZM58.8924 15.1613C59.1429 15.3506 59.1386 15.3571 58.8455 15.2309C58.5376 15.0983 58.4259 14.9961 58.556 14.9661C58.5888 14.9585 58.7402 15.0464 58.8924 15.1613ZM60.4298 16.0535C60.6804 16.2428 60.6761 16.2493 60.383 16.1232C60.075 15.9905 59.9634 15.8883 60.0935 15.8583C60.1262 15.8508 60.2777 15.9386 60.4298 16.0535ZM10.6756 34.7638C10.9061 35.1607 11.8845 36.951 12.8499 38.7424C13.8154 40.5338 15.4543 43.5568 16.4919 45.4601C19.9276 51.7619 20.799 53.4231 20.7259 53.5317C20.5643 53.7723 17.0015 55.2336 16.0239 55.4603C13.0915 56.1407 8.91259 54.926 5.79511 52.4873C2.26591 49.7264 1.30197 43.3217 3.77598 39.0702C4.37177 38.0462 5.87576 36.6307 7.20781 35.8405C7.88782 35.4369 8.80434 34.8808 9.24434 34.6047C9.68431 34.3285 10.0921 34.089 10.1504 34.0725C10.2088 34.0559 10.445 34.367 10.6756 34.7638ZM28.7622 52.7618C29.0365 53.2977 29.9676 55.0107 30.8314 56.5684C31.6949 58.1262 33.3396 61.1128 34.4861 63.2053C35.6325 65.2977 37.1309 68.0246 37.8156 69.2649C39.4963 72.3087 39.6627 73.1988 38.8278 74.6763C38.2137 75.7631 37.4759 76.2956 36.1539 76.6057C35.2042 76.8286 34.9108 76.8285 34.0729 76.6062C32.2685 76.1274 32.7242 76.7882 26.433 65.5284C25.4362 63.7442 23.8379 60.8872 22.8813 59.1795C21.9245 57.4718 21.112 55.9852 21.0758 55.8763C20.9839 55.6017 23.4354 54.282 23.6527 54.4889C23.737 54.5692 24.2786 55.4829 24.8565 56.5196C25.4343 57.5561 26.66 59.7383 27.5803 61.3687C28.5006 62.9991 29.5638 64.8844 29.943 65.5583C30.3222 66.2322 30.7814 66.8801 30.9632 66.9982C31.6556 67.4476 32.6441 66.7932 32.4626 66.0055C32.4118 65.785 31.9983 64.927 31.5438 64.0989C30.4913 62.1816 27.4731 56.8155 26.4135 54.9779C25.9667 54.203 25.5812 53.4822 25.5567 53.3761C25.5111 53.178 27.5871 51.8638 28.0235 51.8147C28.1791 51.7971 28.4383 52.1295 28.7622 52.7618ZM32.6787 69.3602C32.4084 69.8089 32.5789 70.4335 33.0459 70.7045C33.5647 71.0055 34.0131 70.8737 34.3932 70.3083C34.6376 69.9449 34.6653 69.7548 34.5148 69.4718C34.1415 68.7693 33.0738 68.7043 32.6787 69.3602ZM34.4114 72.5446C34.1324 73.0077 34.3377 73.7821 34.767 73.8861C35.2708 74.0083 36.0172 73.7939 36.1896 73.4776C36.4147 73.0646 36.1865 72.3091 35.7899 72.1535C35.3108 71.9659 34.6464 72.1542 34.4114 72.5446Z" fill="#FA8E10"/>
</svg>
