<svg width="101" height="28" viewBox="0 0 101 28" fill="none" xmlns="http://www.w3.org/2000/svg">
<path d="M42.7329 12.4325H36.3795V11.918C36.3795 10.0317 37.4239 9.26007 39.5127 9.26007C41.6885 9.26007 42.7329 10.0317 42.7329 11.918V12.4325ZM39.5997 6.85932C35.6833 6.85932 33.5945 8.83136 33.5945 12.604V14.8332C33.5945 18.8631 35.6833 20.5779 40.296 20.5779C41.6014 20.5779 42.7329 20.4922 43.7773 20.1492C44.7346 19.892 44.8216 19.8062 44.8216 18.8631V18.5201C44.8216 17.577 44.5605 17.4055 43.7773 17.577C42.4718 17.8342 41.3404 18.0914 40.296 18.0914C37.5109 18.0914 36.3795 17.234 36.3795 15.3477V14.7475H43.8643C44.8216 14.7475 45.1698 14.4903 45.2568 13.4614V12.3468C45.2568 8.65988 43.3421 6.85932 39.5997 6.85932ZM57.0932 14.8332C57.0932 17.1483 56.2229 18.0914 53.6119 18.0914C51.0009 18.0914 50.3047 17.1483 50.3047 14.8332V12.604C50.3047 10.289 51.088 9.34581 53.6119 9.34581C56.1358 9.34581 57.0932 10.289 57.0932 12.604V14.8332ZM58.6598 1.71484H58.3116C57.3543 1.71484 57.0932 1.97207 57.0932 3.00096V8.57414C56.3099 7.45951 55.0044 6.85932 53.1767 6.85932C49.3473 6.85932 47.5196 8.83136 47.5196 12.6897V14.8332C47.5196 18.7773 49.6084 20.5779 53.6119 20.5779C57.6154 20.5779 59.7912 18.6059 59.7912 14.8332V3.00096C59.7912 1.97207 59.5301 1.71484 58.6598 1.71484ZM72.933 7.20228H72.5849C71.6276 7.20228 71.3665 7.45951 71.3665 8.31692V15.4334C71.3665 17.234 70.5832 18.0914 68.2333 18.0914C65.8834 18.0914 65.1001 17.234 65.1001 15.4334V8.31692C65.1001 7.45951 64.9261 7.20228 63.9687 7.20228H63.6206C62.6632 7.20228 62.3151 7.45951 62.3151 8.31692V15.4334C62.3151 18.8631 64.3169 20.5779 68.2333 20.5779C72.3238 20.5779 74.0645 18.8631 74.0645 15.4334V8.31692C74.0645 7.45951 73.8034 7.20228 72.933 7.20228ZM85.9879 17.8342H79.2864C78.6772 17.8342 78.5031 17.7485 78.5031 17.4055C78.5031 17.1483 78.6772 16.891 79.0253 16.7196L84.9435 13.0327C85.8138 12.604 86.336 12.0895 86.5971 11.6608C86.9452 11.2321 87.0323 10.6319 87.0323 9.86026C87.0323 7.88821 86.249 7.20228 83.8991 7.20228H77.8069C76.8495 7.20228 76.7625 7.28802 76.7625 8.23118V8.57414C76.7625 9.34581 76.8495 9.60304 77.8069 9.60304H83.725C84.2472 9.60304 84.5083 9.68878 84.5083 10.0317C84.5083 10.289 84.2472 10.5462 83.8991 10.8892L77.9809 14.4045C76.5884 15.1762 75.8921 16.3766 75.8921 17.577C75.8921 19.4633 76.9365 20.3207 79.0253 20.3207H85.9879C86.8582 20.3207 87.0323 20.1492 87.0323 19.2061V18.8631C87.0323 18.0914 86.8582 17.8342 85.9879 17.8342ZM99.0427 17.8342H92.2542C91.732 17.8342 91.4709 17.7485 91.4709 17.4055C91.4709 17.1483 91.5579 16.891 91.9061 16.7196L97.9983 13.0327C98.7816 12.604 99.3908 12.0895 99.5649 11.6608C99.913 11.2321 100.087 10.6319 100.087 9.86026C100.087 7.88821 99.2168 7.20228 96.9539 7.20228H90.7747C89.8173 7.20228 89.6432 7.28802 89.6432 8.23118V8.57414C89.6432 9.34581 89.8173 9.60304 90.7747 9.60304H96.6928C97.128 9.60304 97.4761 9.68878 97.4761 10.0317C97.4761 10.289 97.3021 10.5462 96.7799 10.8892L90.8617 14.4045C89.6432 15.1762 88.947 16.3766 88.947 17.577C88.947 19.4633 89.9914 20.3207 91.9061 20.3207H99.0427C99.826 20.3207 100.087 20.1492 100.087 19.2061V18.8631C100.087 18.0914 99.826 17.8342 99.0427 17.8342Z" fill="#0D47A1"/>
<path d="M27.7633 13.7186C27.7841 16.5137 26.9378 19.2484 25.3376 21.5566C23.7374 23.8648 21.4596 25.6363 18.8093 26.6341C16.159 27.6319 13.2625 27.8083 10.5076 27.1397C7.75269 26.4711 5.27084 24.9894 3.39426 22.8929H11.4883C12.1115 22.8929 12.7092 22.649 13.1499 22.2149C13.5905 21.7807 13.8381 21.1919 13.8381 20.5779C13.8381 19.9639 13.5905 19.3751 13.1499 18.9409C12.7092 18.5068 12.1115 18.2629 11.4883 18.2629H0.609225L0 16.0336H6.17929C6.80251 16.0336 7.40021 15.7897 7.84089 15.3556C8.28158 14.9214 8.52916 14.3326 8.52916 13.7186C8.52916 13.1046 8.28158 12.5158 7.84089 12.0816C7.40021 11.6475 6.80251 11.4036 6.17929 11.4036H0L0.609225 9.17431H11.4883C12.1115 9.17431 12.7092 8.93041 13.1499 8.49626C13.5905 8.06211 13.8381 7.47328 13.8381 6.8593C13.8381 6.24532 13.5905 5.65649 13.1499 5.22234C12.7092 4.78819 12.1115 4.54429 11.4883 4.54429H3.39426C4.72059 3.11542 6.33382 1.97366 8.13167 1.19139C9.92951 0.409117 11.8727 0.00341381 13.8381 0C21.497 0 27.7633 6.17337 27.7633 13.7186Z" fill="#FFBC00"/>
</svg>
